<svg id="Layer_1" data-name="Layer 1" xmlns="http://www.w3.org/2000/svg" viewBox="0 0 356.7 81.64"><defs><style>.cls-1{fill:#f6ac3d;fill-rule:evenodd;}.cls-2{fill:#fff;}</style></defs><title>Nagarro white</title><polygon class="cls-1" points="348.63 53.24 349.43 53.26 350.21 53.33 350.97 53.41 351.71 53.55 352.4 53.71 353.07 53.91 353.69 54.13 354.27 54.38 354.54 54.51 354.81 54.64 355.05 54.78 355.28 54.94 355.5 55.09 355.7 55.25 355.88 55.4 356.03 55.58 356.19 55.74 356.32 55.92 356.44 56.09 356.52 56.27 356.61 56.45 356.66 56.63 356.68 56.83 356.7 57.01 356.68 57.17 356.66 57.34 356.61 57.5 356.52 57.68 356.44 57.84 356.32 58.01 356.19 58.17 356.03 58.35 355.88 58.51 355.7 58.66 355.5 58.82 355.28 58.97 354.81 59.29 354.27 59.55 353.69 59.82 353.07 60.04 352.4 60.27 351.71 60.44 350.97 60.58 350.21 60.69 349.81 60.74 349.43 60.76 349.03 60.78 348.63 60.78 348.2 60.78 347.78 60.76 347.38 60.74 346.97 60.69 346.17 60.58 345.41 60.44 344.68 60.27 343.98 60.04 343.36 59.82 342.76 59.55 342.22 59.29 341.73 58.97 341.51 58.82 341.31 58.66 341.13 58.51 340.95 58.35 340.79 58.17 340.68 58.01 340.55 57.84 340.46 57.68 340.39 57.5 340.33 57.34 340.3 57.17 340.3 57.01 340.3 56.83 340.33 56.63 340.39 56.45 340.46 56.27 340.55 56.09 340.68 55.92 340.79 55.74 340.95 55.58 341.13 55.4 341.31 55.25 341.51 55.09 341.73 54.94 341.95 54.78 342.22 54.64 342.47 54.51 342.76 54.38 343.36 54.13 343.98 53.91 344.68 53.71 345.41 53.55 346.17 53.41 346.97 53.33 347.78 53.26 348.63 53.24"/><path class="cls-1" d="M-25.89,53.05l8.41-2.63,8.59-2.54,8.7-2.42,8.81-2.32,8.88-2.2,9-2.12,9-2,9-1.87,9-1.77,9-1.65L71.27,30l8.81-1.41,8.68-1.27,8.57-1.16,8.41-1.05,8.23-.9,8-.78,7.79-.64,7.54-.51,7.28-.38,7-.25,6.65-.11,6.29,0,5.93.18,5.54.31,5.1.47,4.67.6,4.19.74,3.71.91,3.18,1.05c7.82,2.47,4.5,5.17.12,6.5l-2.83.62-3.44.51-4,.4-4.57.34-5.11.25-5.62.17-6.09.16-6.56.11-14.33.2-15.84.25-8.39.17-8.7.25-8.94.31-9.22.41L83.9,37l-9.6.61-9.75.73-9.88.88-10,1L34.61,41.45l-10.1,1.38L14.38,44.42,4.22,46.22l-10.1,2-10,2.28Z" transform="translate(131.4 28.59)"/><path class="cls-2" d="M-131.4-27.67h14.52V-21a21.73,21.73,0,0,1,6.59-5.81,17.41,17.41,0,0,1,8.13-1.74q6.47,0,10.13,3.85t3.66,11.9V13H-104V-9.36q0-3.83-1.42-5.42a5,5,0,0,0-4-1.59,5.67,5.67,0,0,0-4.6,2.15c-1.18,1.43-1.76,4-1.76,7.7V13h-15.6Z" transform="translate(131.4 28.59)"/><path class="cls-2" d="M-64.85-14.49l-14.9-1.57a16.64,16.64,0,0,1,2.43-6.15,13.4,13.4,0,0,1,4.58-3.89,19.39,19.39,0,0,1,5.9-1.84,48,48,0,0,1,8.12-.65,64.85,64.85,0,0,1,11.26.78,14.53,14.53,0,0,1,7.09,3.28,11.44,11.44,0,0,1,3.14,4.88,17.59,17.59,0,0,1,1.15,6v18a21.17,21.17,0,0,0,.37,4.5A19.91,19.91,0,0,0-34.12,13H-48.76a14.91,14.91,0,0,1-1.15-2.4A16.62,16.62,0,0,1-50.44,8a20.19,20.19,0,0,1-6.1,4.22,25.38,25.38,0,0,1-9.61,1.68q-7.27,0-11-3.36A10.73,10.73,0,0,1-81,2.25a10.89,10.89,0,0,1,2.72-7.62q2.73-3,10-4.45,8.78-1.75,11.38-2.47a51.9,51.9,0,0,0,5.51-1.86c0-1.91-.39-3.25-1.18-4s-2.19-1.15-4.18-1.15a10.74,10.74,0,0,0-5.74,1.23A6.7,6.7,0,0,0-64.85-14.49Zm13.52,8.2c-2.14.76-4.38,1.44-6.7,2Q-62.78-3-64-1.77A3.9,3.9,0,0,0-65.35,1.1a3.87,3.87,0,0,0,1.29,3,5.41,5.41,0,0,0,3.77,1.17A9.65,9.65,0,0,0-55.44,4,7.7,7.7,0,0,0-52.26.93a10.39,10.39,0,0,0,.93-4.73Z" transform="translate(131.4 28.59)"/><path class="cls-2" d="M2.85-27.67H17.44V10.76l0,1.8a17.09,17.09,0,0,1-1.62,7.3,15.42,15.42,0,0,1-4.33,5.61,17.1,17.1,0,0,1-6.86,3.1,42.56,42.56,0,0,1-9.52,1q-12.27,0-16.84-3.68A12,12,0,0,1-26.27,16c0-.51,0-1.2.08-2.07l15.13,1.73A4.93,4.93,0,0,0-9.3,18.57,7.49,7.49,0,0,0-5,19.76a6.54,6.54,0,0,0,5-1.8c1.11-1.2,1.67-3.3,1.67-6.28V5.51a16.14,16.14,0,0,1-4.6,3.94,16.27,16.27,0,0,1-7.78,1.92q-8.16,0-13.18-7.13Q-27.37-.81-27.38-9.13q0-9.49,4.6-14.48a15.59,15.59,0,0,1,12-5A16.88,16.88,0,0,1-2.92-27a17.08,17.08,0,0,1,5.77,5.32ZM-11.83-7.94q0,4.41,1.88,6.53A6.27,6.27,0,0,0-5,.72,6.34,6.34,0,0,0-.12-1.48q2-2.2,2-6.65t-2.07-6.8a6.48,6.48,0,0,0-5-2.36A5.83,5.83,0,0,0-10-15.12Q-11.82-13-11.83-7.94Z" transform="translate(131.4 28.59)"/><path class="cls-2" d="M41.08-14.49l-14.9-1.57a16.64,16.64,0,0,1,2.43-6.15,13.4,13.4,0,0,1,4.58-3.89,19.39,19.39,0,0,1,5.9-1.84,48,48,0,0,1,8.12-.65,65.06,65.06,0,0,1,11.27.78,14.54,14.54,0,0,1,7.08,3.28,11.44,11.44,0,0,1,3.14,4.88,17.59,17.59,0,0,1,1.15,6v18a21.85,21.85,0,0,0,.37,4.5A19.91,19.91,0,0,0,71.81,13H57.17A15.84,15.84,0,0,1,56,10.62,17.9,17.9,0,0,1,55.49,8a20.27,20.27,0,0,1-6.09,4.22,25.47,25.47,0,0,1-9.62,1.68q-7.28,0-11-3.36A10.73,10.73,0,0,1,25,2.25a10.89,10.89,0,0,1,2.72-7.62q2.73-3,10-4.45,8.77-1.75,11.38-2.47a52,52,0,0,0,5.52-1.86c0-1.91-.4-3.25-1.19-4s-2.18-1.15-4.18-1.15a10.74,10.74,0,0,0-5.74,1.23A6.75,6.75,0,0,0,41.08-14.49Zm13.53,8.2q-3.22,1.14-6.71,2c-3.16.84-5.17,1.67-6,2.49A3.9,3.9,0,0,0,40.58,1.1a3.87,3.87,0,0,0,1.29,3,5.41,5.41,0,0,0,3.77,1.17A9.65,9.65,0,0,0,50.49,4,7.7,7.7,0,0,0,53.67.93a10.39,10.39,0,0,0,.94-4.73Z" transform="translate(131.4 28.59)"/><path class="cls-2" d="M79.36-27.67H94V-21q2.11-4.34,4.35-6a9.16,9.16,0,0,1,5.54-1.63,16.32,16.32,0,0,1,7.54,2.15l-4.82,11.11a12.21,12.21,0,0,0-4.37-1.15,5.38,5.38,0,0,0-4.75,2.53Q95-10.39,95-.62V13H79.36Z" transform="translate(131.4 28.59)"/><path class="cls-2" d="M117.48-27.67h14.59V-21q2.12-4.34,4.35-6A9.13,9.13,0,0,1,142-28.59a16.32,16.32,0,0,1,7.54,2.15l-4.82,11.11a12.21,12.21,0,0,0-4.37-1.15,5.38,5.38,0,0,0-4.75,2.53q-2.42,3.56-2.41,13.33V13H117.48Z" transform="translate(131.4 28.59)"/><path class="cls-2" d="M151.5-7.21a20.33,20.33,0,0,1,6.28-15.34q6.28-6,17-6,12.23,0,18.47,7.09a20.55,20.55,0,0,1,5,14.06A20.42,20.42,0,0,1,192,7.94q-6.22,6-17.22,6-9.81,0-15.86-5A20,20,0,0,1,151.5-7.21Zm15.63,0q0,5.45,2.2,8.05a7,7,0,0,0,5.54,2.6A6.92,6.92,0,0,0,180.4.83c1.44-1.71,2.17-4.45,2.17-8.23,0-3.53-.73-6.15-2.19-7.88a6.79,6.79,0,0,0-5.4-2.58,7.05,7.05,0,0,0-5.63,2.62Q167.13-12.61,167.13-7.25Z" transform="translate(131.4 28.59)"/></svg>