<?xml version="1.0" encoding="utf-8"?>
<!-- Generator: Adobe Illustrator 15.1.0, SVG Export Plug-In  -->
<!DOCTYPE svg PUBLIC "-//W3C//DTD SVG 1.1//EN" "http://www.w3.org/Graphics/SVG/1.1/DTD/svg11.dtd" [
	<!ENTITY ns_flows "http://ns.adobe.com/Flows/1.0/">
]>
<svg version="1.1"
	 xmlns="http://www.w3.org/2000/svg" xmlns:xlink="http://www.w3.org/1999/xlink" xmlns:a="http://ns.adobe.com/AdobeSVGViewerExtensions/3.0/"
	 x="0px" y="0px" width="367px" height="115px" viewBox="-4.342 -3.343 367 115"
	 overflow="visible" enable-background="new -4.342 -3.343 367 115" xml:space="preserve">
<defs>
</defs>
<path fill="#F57F29" d="M68.437,69.057c-1.668,6.453-3.312,13.113-4.914,19.899c7.197,4.647,14.25,9.229,21.278,13.159
	C79.42,91.917,74.021,80.684,68.437,69.057z"/>
<path fill="#E0601F" d="M68.437,69.057c6.433,4.59,12.717,9.24,18.909,13.539c-0.839,6.287-1.691,12.807-2.545,19.52
	C79.42,91.917,74.021,80.684,68.437,69.057z"/>
<path fill="#E0601F" d="M68.437,69.057c-1.668,6.453-3.312,13.113-4.914,19.899C56.334,84.314,49,79.606,41.631,75.409
	C50.48,72.567,59.511,70.331,68.437,69.057z"/>
<path fill="#FDB515" d="M68.437,69.057c-6.429-4.592-13.008-9.123-19.655-13.195c-2.446,6.425-4.83,12.984-7.15,19.548
	C50.48,72.567,59.511,70.331,68.437,69.057z"/>
<path fill="#F57F29" d="M75.76,42.622c-1.097,3.688-2.2,7.513-3.299,11.455c5.768,4.63,11.375,9.38,16.849,13.953
	C84.861,60.049,80.381,51.466,75.76,42.622z"/>
<path fill="#E0601F" d="M75.76,42.622c5.189,4.681,10.207,9.509,15.069,14.261c-0.491,3.599-0.998,7.319-1.52,11.146
	C84.861,60.049,80.381,51.466,75.76,42.622z"/>
<path fill="#FDB515" d="M68.437,69.057c1.328-5.141,2.675-10.148,4.024-14.98c5.768,4.63,11.375,9.38,16.849,13.953
	C82.572,67.639,75.54,68.04,68.437,69.057z"/>
<path fill="#F57F29" d="M68.437,69.057c6.433,4.59,12.717,9.24,18.909,13.539c0.669-5.006,1.326-9.867,1.964-14.566
	C82.572,67.639,75.54,68.04,68.437,69.057z"/>
<path fill="#A9ABAC" d="M75.76,42.622c0.909-3.065,1.819-6.034,2.716-8.894c4.681,4.711,9.19,9.581,13.53,14.438
	C86.886,45.677,81.42,43.841,75.76,42.622z"/>
<path fill="#797D82" d="M75.76,42.622c5.189,4.681,10.207,9.509,15.069,14.261c0.407-2.99,0.8-5.897,1.177-8.718
	C86.886,45.677,81.42,43.841,75.76,42.622z"/>
<path fill="#797D82" d="M75.76,42.622c0.909-3.065,1.819-6.034,2.716-8.894c-4.682-4.713-9.536-9.267-14.523-13.498
	C67.992,27.744,71.922,35.273,75.76,42.622z"/>
<path fill="#DFE1DF" d="M75.76,42.622c-5.186-4.679-10.542-9.212-16.018-13.382c1.395-3.106,2.803-6.117,4.21-9.01
	C67.992,27.744,71.922,35.273,75.76,42.622z"/>
<path fill="#E0601F" d="M28.869,45.4c-3.121,6.515-6.135,13.077-9.092,19.5c7.093,2.63,14.492,6.314,21.854,10.509
	C37.422,65.125,33.141,55.041,28.869,45.4z"/>
<path fill="#F57F29" d="M28.869,45.4c6.558,2.772,13.269,6.388,19.912,10.461c-2.446,6.425-4.83,12.984-7.15,19.548
	C37.422,65.125,33.141,55.041,28.869,45.4z"/>
<path fill="#E09E14" d="M28.869,45.4c-3.121,6.515-6.135,13.077-9.092,19.5C12.694,62.274,5.91,60.704,0,60.721
	C8.475,53.964,18.359,48.787,28.869,45.4z"/>
<path fill="#FFD600" d="M28.869,45.4c-6.548-2.772-12.944-4.705-18.82-5.426C6.555,46.982,3.236,53.976,0,60.721
	C8.475,53.964,18.359,48.787,28.869,45.4z"/>
<path fill="#FFD600" d="M43.064,18.025c-2.219,3.88-4.401,7.898-6.537,12.002c-6.063-3.009-12.071-5.333-17.776-6.7
	C26.394,20.103,34.672,18.339,43.064,18.025z"/>
<path fill="#F6B413" d="M43.064,18.025c-5.604-3.236-11.216-5.902-16.661-7.79c-2.637,4.24-5.186,8.627-7.652,13.092
	C26.394,20.103,34.672,18.339,43.064,18.025z"/>
<path fill="#F6B413" d="M28.869,45.4c2.487-5.188,5.037-10.345,7.658-15.373c-6.063-3.009-12.071-5.333-17.776-6.7
	C22.077,30.322,25.469,37.722,28.869,45.4z"/>
<path fill="#E09E14" d="M28.869,45.4c-6.548-2.772-12.944-4.705-18.82-5.426c2.786-5.583,5.679-11.174,8.702-16.646
	C22.077,30.322,25.469,37.722,28.869,45.4z"/>
<path fill="#797D82" d="M43.064,18.025c1.846-3.225,3.717-6.353,5.608-9.36C53.847,12.091,58.966,16,63.952,20.229
	C57.098,18.502,50.042,17.763,43.064,18.025z"/>
<path fill="#A9ABAC" d="M43.064,18.025c5.606,3.236,11.203,7.042,16.678,11.214c1.395-3.106,2.803-6.117,4.21-9.01
	C57.098,18.502,50.042,17.763,43.064,18.025z"/>
<path fill="#F6B413" d="M43.064,18.025c1.846-3.225,3.717-6.353,5.608-9.36C43.502,5.243,38.28,2.301,33.134,0
	C36.459,5.798,39.78,11.839,43.064,18.025z"/>
<path fill="#E09E14" d="M43.064,18.025c-5.604-3.236-11.216-5.902-16.661-7.79C28.591,6.71,30.837,3.285,33.134,0
	C36.459,5.798,39.78,11.839,43.064,18.025z"/>
<g>
	<g>
		<g>
			<g>
				<path fill="#343741" d="M129.314,107.949c-13.83,0-23.479-10.484-23.479-23.221s9.777-23.352,23.607-23.352
					c13.829,0,23.479,10.486,23.479,23.223C152.921,97.337,143.144,107.949,129.314,107.949z M129.314,68.646
					c-8.942,0-15.182,7.141-15.182,15.953c0,8.812,6.369,16.082,15.31,16.082c8.941,0,15.181-7.141,15.181-15.953
					C144.623,75.914,138.254,68.646,129.314,68.646z"/>
			</g>
		</g>
		<g>
			<g>
				<path fill="#343741" d="M177.107,92.705h-8.941v14.473h-7.912V62.15h17.754c10.485,0,17.111,5.918,17.111,15.115
					C195.119,87.43,187.014,92.705,177.107,92.705z M177.365,69.354h-9.199v16.21h9.199c5.981,0,9.713-3.279,9.713-8.104
					C187.078,72.12,183.281,69.354,177.365,69.354z"/>
			</g>
		</g>
		<g>
			<g>
				<path fill="#343741" d="M221.298,107.178h-7.976V69.483h-14.281V62.15h36.538v7.333h-14.281V107.178z"/>
			</g>
		</g>
		<g>
			<g>
				<path fill="#343741" d="M281.121,87.686c0,13.444-7.591,20.199-19.362,20.199c-11.708,0-19.169-6.755-19.169-19.811V62.15h7.913
					v25.601c0,8.362,4.31,12.864,11.385,12.864c7.011,0,11.32-4.244,11.32-12.541V62.15h7.913V87.686z"/>
			</g>
		</g>
		<g>
			<g>
				<path fill="#343741" d="M311.867,96.113h-0.258l-14.086-21.098v32.162h-7.783V62.15h8.426l13.701,21.291l13.701-21.291h8.428
					v45.027h-7.914V74.886L311.867,96.113z"/>
			</g>
		</g>
	</g>
</g>
<g>
	<g>
		<g>
			<path fill="#343741" d="M346.056,71.142h-1.03v-8.079h-3.028v-0.941h7.087v0.941h-3.028V71.142z"/>
			<path fill="#343741" d="M355.317,68.668h-0.051l-3.286-4.819v7.293h-0.992v-9.021h1.031l3.286,4.923l3.286-4.923h1.03v9.021
				h-1.018v-7.306L355.317,68.668z"/>
		</g>
	</g>
</g>
</svg>
