<svg id="Layer_1" data-name="Layer 1" xmlns="http://www.w3.org/2000/svg" xmlns:xlink="http://www.w3.org/1999/xlink" viewBox="0 0 300 168"><defs><style>.cls-1{fill:none;}.cls-2{fill:#1d1d1b;}.cls-3{clip-path:url(#clip-path);}.cls-4{fill:url(#New_Gradient_Swatch_2);}.cls-5{fill:#e30613;}</style><clipPath id="clip-path"><path class="cls-1" d="M209.26,138a10.37,10.37,0,1,1-10.5-10.24A10.38,10.38,0,0,1,209.26,138"/></clipPath><radialGradient id="New_Gradient_Swatch_2" cx="-120.17" cy="489.62" r="2.07" gradientTransform="matrix(8.6, 0, 0, -8.6, 1236.53, 4347.76)" gradientUnits="userSpaceOnUse"><stop offset="0" stop-color="#fff"/><stop offset="0.19" stop-color="#eb4f58"/><stop offset="0.27" stop-color="#e30613"/><stop offset="0.49" stop-color="#9d1006"/><stop offset="0.8" stop-color="#200"/><stop offset="1" stop-color="#200"/></radialGradient></defs><title>SSP logo</title><rect class="cls-1" width="300" height="168"/><path class="cls-2" d="M92.43,121.73c5.15,18.66,22.33,17.57,22.33,17.57,13.4,0,17.55-8.13,17.55-8.13a10.77,10.77,0,0,0-2.18-14.4c-5.06-4.17-22.43-15.59-22.43-15.59C93,91.64,94.21,78.45,94.21,78.45,95,58.09,123.1,57.2,123.1,57.2a92.16,92.16,0,0,1,22.52,2.09l-.69,18.36c-4-13.59-18.86-13.8-18.86-13.8-11.81-.73-16,5.17-16,5.17-5.16,7.45-.38,12.41-.38,12.41,4.46,4.76,17.46,12.21,17.46,12.21,13.11,8.24,16.58,14,16.58,14a24.49,24.49,0,0,1,4.66,14.1,23.88,23.88,0,0,1-4.66,13.8c-9.74,12-29.88,11-29.88,11-15.9-.09-22.24-3.77-22.24-3.77l.81-21Z"/><g class="cls-3"><rect class="cls-4" x="188.45" y="127.72" width="20.88" height="20.88"/></g><path class="cls-5" d="M267.4,62.16C259.15,28,210.07,10.84,157.76,23.78c-26.21,6.49-48.23,19.28-62.67,34.74,13.52-12.5,32.21-22.64,54-28,50-12.38,97.07,5,105.22,38.74,5.87,24.31-10.05,50.48-38,67.86,36-17.46,57.77-47.5,51.15-75"/><path class="cls-2" d="M32.21,121.73c5.17,18.66,22.35,17.57,22.35,17.57,13.4,0,17.56-8.13,17.56-8.13a10.78,10.78,0,0,0-2.19-14.4c-5.06-4.17-22.43-15.59-22.43-15.59C32.82,91.64,34,78.45,34,78.45,34.79,58.09,62.9,57.2,62.9,57.2a92.08,92.08,0,0,1,22.52,2.09l-.69,18.36c-4-13.59-18.86-13.8-18.86-13.8-11.81-.73-16,5.17-16,5.17-5.16,7.45-.38,12.41-.38,12.41C54,86.19,67,93.64,67,93.64c13.11,8.24,16.58,14,16.58,14a24.67,24.67,0,0,1,4.66,14.1,23.88,23.88,0,0,1-4.66,13.8c-9.74,12-29.88,11-29.88,11-15.9-.09-22.24-3.77-22.24-3.77l.79-21Z"/><path class="cls-2" d="M177.76,58.65c36.61,0,36,22.52,36,22.52,0,23.16-28,24.3-28,24.3H175.34c24.47-2.76,22.35-21.87,22.35-21.87,0-23.16-28.17-18.47-28.17-18.47v70.14C169.52,146.44,182,146,182,146h-28.7l-.14-87.31Z"/></svg>